            <svg width="512" height="512" viewBox="0 0 512 512" fill="none" xmlns="http://www.w3.org/2000/svg">
                <defs>
                    <radialGradient id="bgFinal" cx="50%" cy="35%" r="70%">
                        <stop offset="0%" stop-color="#1B2838"/>
                        <stop offset="100%" stop-color="#0A1219"/>
                    </radialGradient>
                    <linearGradient id="goldFinal" x1="0%" y1="0%" x2="100%" y2="100%">
                        <stop offset="0%" stop-color="#FFF5CC"/>
                        <stop offset="20%" stop-color="#E8C547"/>
                        <stop offset="40%" stop-color="#D4AF37"/>
                        <stop offset="60%" stop-color="#C9A227"/>
                        <stop offset="80%" stop-color="#D4AF37"/>
                        <stop offset="100%" stop-color="#A38520"/>
                    </linearGradient>
                    <linearGradient id="crescFinal" x1="0%" y1="0%" x2="100%" y2="100%">
                        <stop offset="0%" stop-color="#FFF8DC"/>
                        <stop offset="30%" stop-color="#F0D860"/>
                        <stop offset="60%" stop-color="#D4AF37"/>
                        <stop offset="100%" stop-color="#8B7520"/>
                    </linearGradient>
                    <linearGradient id="pageFinalL" x1="0%" y1="0%" x2="100%" y2="20%">
                        <stop offset="0%" stop-color="#F5EED8"/>
                        <stop offset="70%" stop-color="#FFFEF8"/>
                        <stop offset="100%" stop-color="#EDE5D0"/>
                    </linearGradient>
                    <linearGradient id="pageFinalR" x1="100%" y1="0%" x2="0%" y2="20%">
                        <stop offset="0%" stop-color="#F5EED8"/>
                        <stop offset="70%" stop-color="#FFFEF8"/>
                        <stop offset="100%" stop-color="#EDE5D0"/>
                    </linearGradient>
                    <linearGradient id="coverFinal" x1="0%" y1="0%" x2="0%" y2="100%">
                        <stop offset="0%" stop-color="#3D2416"/>
                        <stop offset="30%" stop-color="#2A1810"/>
                        <stop offset="70%" stop-color="#1A0F0A"/>
                        <stop offset="100%" stop-color="#0D0705"/>
                    </linearGradient>
                    <linearGradient id="innerFinal" x1="0%" y1="0%" x2="0%" y2="100%">
                        <stop offset="0%" stop-color="#4A2C1A"/>
                        <stop offset="100%" stop-color="#2A1810"/>
                    </linearGradient>
                    <linearGradient id="spineFinal" x1="0%" y1="0%" x2="100%" y2="0%">
                        <stop offset="0%" stop-color="#1A0F0A"/>
                        <stop offset="50%" stop-color="#4A2C1A"/>
                        <stop offset="100%" stop-color="#1A0F0A"/>
                    </linearGradient>
                    <filter id="shadowFinal" x="-30%" y="-30%" width="160%" height="160%">
                        <feDropShadow dx="0" dy="10" stdDeviation="12" flood-color="#000000" flood-opacity="0.5"/>
                    </filter>
                    <filter id="glowFinal" x="-50%" y="-50%" width="200%" height="200%">
                        <feGaussianBlur stdDeviation="5" result="blur"/>
                        <feFlood flood-color="#D4AF37" flood-opacity="0.5"/>
                        <feComposite in2="blur" operator="in"/>
                        <feMerge><feMergeNode/><feMergeNode in="SourceGraphic"/></feMerge>
                    </filter>
                    <filter id="softFinal" x="-50%" y="-50%" width="200%" height="200%">
                        <feGaussianBlur stdDeviation="3" result="blur"/>
                        <feFlood flood-color="#D4AF37" flood-opacity="0.4"/>
                        <feComposite in2="blur" operator="in"/>
                        <feMerge><feMergeNode/><feMergeNode in="SourceGraphic"/></feMerge>
                    </filter>
                </defs>
                
                <circle cx="256" cy="256" r="250" fill="url(#bgFinal)"/>
                <circle cx="256" cy="256" r="240" stroke="url(#goldFinal)" stroke-width="2.5" fill="none" filter="url(#softFinal)"/>
                <circle cx="256" cy="256" r="225" stroke="url(#goldFinal)" stroke-width="1" stroke-dasharray="12 4 4 4" fill="none" opacity="0.4"/>
                
                <!-- Crescent + Star -->
                <g filter="url(#glowFinal)">
                    <path d="M256 70 C283 70 306 93 306 125 C306 157 283 180 256 180 C229 180 206 157 206 125 C224 145 248 137 248 115 C248 93 224 78 206 85 C220 72 237 65 256 70Z" fill="url(#crescFinal)"/>
                    <path d="M256 76 C280 76 300 96 303 122 C275 105 252 112 252 112 C252 94 233 80 212 85 C226 74 240 70 256 76Z" fill="rgba(255,255,255,0.35)"/>
                    <polygon points="278,108 282,120 295,120 285,128 289,142 278,134 267,142 271,128 261,120 274,120" fill="url(#goldFinal)"/>
                </g>
                
                <!-- Stars -->
                <g filter="url(#softFinal)">
                    <polygon points="155,110 159,122 172,122 162,130 166,143 155,135 144,143 148,130 138,122 151,122" fill="url(#goldFinal)"/>
                    <polygon points="357,110 361,122 374,122 364,130 368,143 357,135 346,143 350,130 340,122 353,122" fill="url(#goldFinal)"/>
                </g>
                
                <!-- Book -->
                <g filter="url(#shadowFinal)">
                    <path d="M100 380 L100 200 C100 185 112 175 130 173 L240 165 C250 164 256 172 256 182 L256 390 L130 395 C112 395 100 387 100 380Z" fill="url(#coverFinal)"/>
                    <path d="M412 380 L412 200 C412 185 400 175 382 173 L272 165 C262 164 256 172 256 182 L256 390 L382 395 C400 395 412 387 412 380Z" fill="url(#coverFinal)"/>
                    <path d="M252 165 C252 165 256 160 260 165 L260 395 C260 395 256 400 252 395 Z" fill="url(#spineFinal)"/>
                    <path d="M105 375 L105 205 C105 192 115 183 132 181 L245 174 C252 173 255 180 255 188 L255 385 L132 389 C115 389 105 382 105 375Z" fill="url(#innerFinal)"/>
                    <path d="M407 375 L407 205 C407 192 397 183 380 181 L267 174 C260 173 257 180 257 188 L257 385 L380 389 C397 389 407 382 407 375Z" fill="url(#innerFinal)"/>
                    <path d="M115 370 L115 212 C115 200 125 192 140 190 L243 183 C250 182 254 189 254 197 Q250 285 254 378 L140 382 C125 382 115 375 115 370Z" fill="url(#pageFinalL)"/>
                    <path d="M254 197 Q244 285 254 378 Q248 285 254 197Z" fill="rgba(0,0,0,0.08)"/>
                    <path d="M397 370 L397 212 C397 200 387 192 372 190 L269 183 C262 182 258 189 258 197 Q262 285 258 378 L372 382 C387 382 397 375 397 370Z" fill="url(#pageFinalR)"/>
                    <path d="M258 197 Q268 285 258 378 Q264 285 258 197Z" fill="rgba(0,0,0,0.06)"/>
                    <path d="M254 190 L254 385 L258 385 L258 190 Z" fill="rgba(0,0,0,0.15)"/>
                    <g opacity="0.4">
                        <path d="M135 225 Q185 223 235 225" stroke="#8B7355" stroke-width="2" fill="none"/>
                        <path d="M138 250 Q185 248 232 250" stroke="#8B7355" stroke-width="2" fill="none"/>
                        <path d="M135 275 Q185 273 235 275" stroke="#8B7355" stroke-width="2" fill="none"/>
                        <path d="M138 300 Q185 298 232 300" stroke="#8B7355" stroke-width="2" fill="none"/>
                        <path d="M135 325 Q185 323 235 325" stroke="#8B7355" stroke-width="2" fill="none"/>
                        <path d="M277 225 Q327 223 377 225" stroke="#8B7355" stroke-width="2" fill="none"/>
                        <path d="M280 250 Q327 248 374 250" stroke="#8B7355" stroke-width="2" fill="none"/>
                        <path d="M277 275 Q327 273 377 275" stroke="#8B7355" stroke-width="2" fill="none"/>
                        <path d="M280 300 Q327 298 374 300" stroke="#8B7355" stroke-width="2" fill="none"/>
                        <path d="M277 325 Q327 323 377 325" stroke="#8B7355" stroke-width="2" fill="none"/>
                    </g>
                    <path d="M115 202 L135 190 L135 210 Z" fill="url(#goldFinal)"/>
                    <path d="M397 202 L377 190 L377 210 Z" fill="url(#goldFinal)"/>
                    <path d="M115 372 L135 382 L135 365 Z" fill="url(#goldFinal)"/>
                    <path d="M397 372 L377 382 L377 365 Z" fill="url(#goldFinal)"/>
                    <rect x="252" y="175" width="8" height="5" rx="1" fill="url(#goldFinal)"/>
                    <rect x="252" y="380" width="8" height="5" rx="1" fill="url(#goldFinal)"/>
                    <rect x="253" y="250" width="6" height="60" rx="1" fill="url(#goldFinal)" opacity="0.5"/>
                </g>
                
                <g filter="url(#softFinal)">
                    <circle cx="256" cy="440" r="6" fill="url(#goldFinal)"/>
                    <circle cx="230" cy="450" r="3" fill="url(#goldFinal)" opacity="0.6"/>
                    <circle cx="282" cy="450" r="3" fill="url(#goldFinal)" opacity="0.6"/>
                </g>
            </svg>
